<svg width="23" height="17" viewBox="0 0 23 17" fill="none" xmlns="http://www.w3.org/2000/svg">
  <path d="M4.57603 16.128C3.3387 16.128 2.35737 15.7227 1.63203 14.912C0.949366 14.1013 0.608032 13.12 0.608032 11.968V11.392C0.608032 10.4533 0.778699 9.472 1.12003 8.448C1.46137 7.424 1.90937 6.4 2.46403 5.376C3.06137 4.352 3.74403 3.392 4.51203 2.496C5.3227 1.6 6.17603 0.810664 7.07203 0.127998H10.272C8.82137 1.408 7.60537 2.752 6.62403 4.16C5.6427 5.52533 5.0027 6.82666 4.70403 8.064H4.83203C6.0267 8.064 6.94403 8.448 7.58403 9.216C8.22403 9.984 8.54403 10.8587 8.54403 11.84V12.224C8.54403 13.3333 8.18137 14.272 7.45603 15.04C6.7307 15.7653 5.7707 16.128 4.57603 16.128ZM16.992 16.128C15.7547 16.128 14.7734 15.7227 14.048 14.912C13.3654 14.1013 13.024 13.12 13.024 11.968V11.392C13.024 10.4533 13.1947 9.472 13.536 8.448C13.8774 7.424 14.3254 6.4 14.88 5.376C15.4774 4.352 16.16 3.392 16.928 2.496C17.7387 1.6 18.592 0.810664 19.488 0.127998H22.688C21.2374 1.408 20.0214 2.752 19.04 4.16C18.0587 5.52533 17.4187 6.82666 17.12 8.064H17.248C18.4427 8.064 19.36 8.448 20 9.216C20.64 9.984 20.96 10.8587 20.96 11.84V12.224C20.96 13.3333 20.5974 14.272 19.872 15.04C19.1467 15.7653 18.1867 16.128 16.992 16.128Z" fill="white"/>
</svg>
